<?xml version="1.0" encoding="utf-8"?>
<!-- Generator: Adobe Illustrator 27.9.0, SVG Export Plug-In . SVG Version: 6.00 Build 0)  -->
<svg version="1.1" id="Livello_1" xmlns="http://www.w3.org/2000/svg" xmlns:xlink="http://www.w3.org/1999/xlink" x="0px" y="0px"
	 viewBox="0 0 32.1 32.1" style="enable-background:new 0 0 32.1 32.1;" xml:space="preserve">
<style type="text/css">
	.st0{opacity:0.75;}
	.st1{fill-rule:evenodd;clip-rule:evenodd;fill:#F2F2F2;}
</style>
<g class="st0">
	<path class="st1" d="M16,2.7C8.7,2.7,2.7,8.7,2.7,16s6,13.4,13.4,13.4s13.4-6,13.4-13.4S23.4,2.7,16,2.7z M0,16C0,7.2,7.2,0,16,0
		s16,7.2,16,16s-7.2,16-16,16S0,24.9,0,16z"/>
	<path class="st1" d="M12.8,30.4c-0.1-0.2-0.1-1.7,0-4.5c-1.4,0-2.3,0-2.6-0.3c-0.5-0.4-1.1-1.5-1.6-2.3s-1.6-0.9-2-1.1
		c-0.4-0.2-0.5-0.9,1.2-0.3c1.7,0.5,1.8,2,2.4,2.4c0.6,0.3,1.9,0.2,2.5-0.1c0.6-0.3,0.6-1.3,0.7-1.7c0.1-0.4-0.3-0.5-0.4-0.5
		c-0.6,0-3.6-0.7-4.5-3.6c-0.8-3,0.2-4.9,0.8-5.7c0.4-0.6,0.4-1.7-0.1-3.6c1.6-0.2,2.9,0.3,3.8,1.6c0,0,1.2-0.7,3-0.7
		c1.9,0,2.5,0.6,3,0.7c0.5,0.1,0.9-2.2,4-1.6c-0.7,1.3-1.2,2.9-0.8,3.6c0.4,0.7,2.1,2.8,1.1,5.7c-0.7,2-2,3.2-4,3.6
		c-0.2,0.1-0.3,0.2-0.3,0.3c0,0.2,0.3,0.3,0.7,1.4c0.3,0.8,0.3,2.9,0.1,6.4c-0.6,0.2-1.1,0.3-1.5,0.3c-0.6,0.1-1.3,0.2-2,0.2
		c-0.7,0-0.9,0-1.8-0.1C14,30.6,13.4,30.5,12.8,30.4z"/>
</g>
</svg>
