<?xml version="1.0" encoding="utf-8"?>
<!-- Generator: Adobe Illustrator 27.9.0, SVG Export Plug-In . SVG Version: 6.00 Build 0)  -->
<svg version="1.1" id="Livello_1" xmlns="http://www.w3.org/2000/svg" xmlns:xlink="http://www.w3.org/1999/xlink" x="0px" y="0px"
	 viewBox="0 0 36.3 29" style="enable-background:new 0 0 36.3 29;" xml:space="preserve">
<style type="text/css">
	.st0{opacity:0.75;fill:#F2F2F2;}
</style>
<path class="st0" d="M28.7,29H7.6c-2.2,0-3.5,0-4.6-0.6c-1-0.5-1.9-1.3-2.4-2.4C0,24.9,0,23.7,0,21.4V7.6c0-0.1,0-0.2,0-0.3
	c0,0,0,0,0-0.1c0-2,0-3.2,0.6-4.3c0.5-1,1.3-1.9,2.4-2.4C4.1,0,5.4,0,7.6,0h21.1c2.2,0,3.5,0,4.6,0.6c1,0.5,1.9,1.3,2.4,2.4
	c0.6,1.1,0.6,2.3,0.6,4.2c0,0,0,0,0,0.1c0,0.1,0,0.2,0,0.3v13.8c0,2.2,0,3.5-0.6,4.6c-0.5,1-1.3,1.9-2.4,2.4
	C32.2,29,30.9,29,28.7,29z M3.6,10.7v10.8c0,1.6,0,2.6,0.2,3C4,24.8,4.3,25,4.6,25.2c0.4,0.2,1.4,0.2,3,0.2h21.1c1.6,0,2.6,0,3-0.2
	c0.3-0.2,0.6-0.4,0.8-0.8c0.2-0.4,0.2-1.4,0.2-3V10.7l-7.1,4.7c-2.4,1.6-3.8,2.5-5.3,2.9c-1.4,0.3-2.8,0.3-4.2,0
	c-1.6-0.4-2.9-1.3-5.3-2.9L3.6,10.7z M3.6,6.3l9.1,6.1c2.1,1.4,3.2,2.1,4.2,2.4c0.8,0.2,1.7,0.2,2.5,0c0.9-0.2,2-0.9,4.2-2.4
	l9.1-6.1c0-0.8-0.1-1.4-0.2-1.7C32.3,4.3,32,4,31.7,3.8c-0.4-0.2-1.4-0.2-3-0.2H7.6c-1.6,0-2.6,0-3,0.2C4.3,4,4,4.3,3.8,4.6
	C3.7,4.9,3.6,5.5,3.6,6.3z"/>
</svg>
