<?xml version="1.0" encoding="utf-8"?>
<!-- Generator: Adobe Illustrator 27.9.0, SVG Export Plug-In . SVG Version: 6.00 Build 0)  -->
<svg version="1.1" id="Livello_1" xmlns="http://www.w3.org/2000/svg" xmlns:xlink="http://www.w3.org/1999/xlink" x="0px" y="0px"
	 viewBox="0 0 31.7 31.7" style="enable-background:new 0 0 31.7 31.7;" xml:space="preserve">
<style type="text/css">
	.st0{opacity:0.75;}
	.st1{fill:#F2F2F2;}
</style>
<g class="st0">
	<path id="XMLID_00000065759971803965712180000005051826389160472248_" class="st1" d="M23.4,18.2c-0.1,0-2.4-1.2-2.8-1.3
		c-0.2-0.1-0.3-0.1-0.5-0.1c-0.3,0-0.6,0.2-0.8,0.5c-0.2,0.3-0.9,1.2-1.1,1.4c0,0-0.1,0.1-0.1,0.1c0,0-0.4-0.1-0.5-0.2
		c-2.5-1.1-4.4-3.7-4.6-4.1c0-0.1,0-0.1,0-0.1c0,0,0.1-0.1,0.1-0.2c0.1-0.1,0.3-0.3,0.4-0.4c0.1-0.1,0.1-0.2,0.2-0.2
		c0.2-0.2,0.3-0.4,0.4-0.6l0.1-0.1c0.2-0.5,0-0.9,0-1c-0.1-0.1-1-2.5-1.1-2.7c-0.2-0.6-0.6-0.9-1-0.9c0,0,0,0-0.2,0
		c-0.2,0-1.4,0.2-1.9,0.5C9.3,9,8.3,10.2,8.3,12.1c0,1.8,1.1,3.4,1.6,4.1c0,0,0,0,0.1,0.1c1.8,2.7,4.1,4.7,6.5,5.6
		c2.2,0.9,3.3,1,3.9,1c0,0,0,0,0,0c0.3,0,0.5,0,0.6,0l0.1,0c0.8-0.1,2.5-0.9,2.9-2c0.3-0.8,0.4-1.8,0.2-2.1
		C24,18.5,23.7,18.3,23.4,18.2z"/>
	<path id="XMLID_00000176759836811249609180000004593393699798872736_" class="st1" d="M16.1,0C7.5,0,0.6,6.9,0.6,15.4
		c0,2.8,0.7,5.4,2.1,7.8L0,31.1c0,0.1,0,0.3,0.1,0.4c0.1,0.1,0.2,0.1,0.3,0.1c0,0,0.1,0,0.1,0L8.8,29c2.2,1.2,4.8,1.8,7.4,1.8
		c8.6,0,15.6-6.9,15.6-15.4C31.7,6.9,24.7,0,16.1,0z M16.1,27.7c-2.4,0-4.8-0.7-6.8-2c-0.1,0-0.1-0.1-0.2-0.1c0,0-0.1,0-0.1,0
		l-4.1,1.3L6.2,23c0-0.1,0-0.3-0.1-0.4c-1.5-2.1-2.3-4.6-2.3-7.2c0-6.7,5.5-12.2,12.3-12.2c6.8,0,12.3,5.5,12.3,12.2
		C28.4,22.2,22.9,27.7,16.1,27.7z"/>
</g>
</svg>
